<?xml version="1.0" encoding="utf-8"?>
<!-- Generator: Adobe Illustrator 19.0.0, SVG Export Plug-In . SVG Version: 6.00 Build 0)  -->
<svg version="1.1" id="Layer_1" xmlns="http://www.w3.org/2000/svg" xmlns:xlink="http://www.w3.org/1999/xlink" x="0px" y="0px"
	 viewBox="0 0 792 612" style="enable-background:new 0 0 792 612;" xml:space="preserve">
<style type="text/css">
	.st0{fill:#5B328A;}
</style>
<g id="XMLID_2_">
	<path id="XMLID_19_" class="st0" d="M302.7,422.4l-0.5-2.9c-24.1-129.2,76.4-196.1,96.8-208.2c2.5-1.5,5-3.1,7.6-4.9
		c26.6-18.3,47-19.9,59.3-18c12.5,1.9,22.2,11.8,24.2,24.4c9.8,63.3-98.1,115.3-102.6,117.4l-2.7,1.3l-2.5-5.3l2.7-1.3
		c1.1-0.5,108.5-52.3,99.4-111.2c-1.6-10.1-9.3-18-19.2-19.5c-11.3-1.8-30.1-0.2-55.1,17c-2.7,1.8-5.4,3.6-7.9,5.1
		c-19.8,11.8-117.4,76.7-94.1,202.1l0.5,2.9L302.7,422.4z"/>
	<path id="XMLID_18_" class="st0" d="M341,423.1l-2-2.1c-36.7-39.2-52.1-78-45.7-115.3c10.5-61.6,75.5-96.9,80.2-99.4
		c58.8-40.6,82.2-12.3,83.2-11.1l0.2,0.3l0.1,0.3c25,55.2-62,116.4-65.7,119l-2.4,1.7l-3.4-4.8l2.4-1.7
		c0.9-0.6,86.2-60.7,63.8-111.4c-2.4-2.7-23.4-23.3-75.2,12.6l-0.3,0.2c-0.7,0.4-67.1,35.7-77.3,95.3c-6,35.5,8.9,72.6,44.2,110.3
		l2,2.1L341,423.1z"/>
	<path id="XMLID_17_" class="st0" d="M385,431.9l-2-2.2c-0.3-0.3-26.3-29.3-69.2-83.2c-44.2-55.4-22.5-90.2-21.5-91.6
		c37.6-56.2,81.2-70.8,103.8-74.5c10.6-1.7,21.1,1.6,28.7,9c7.5,7.3,11.1,17.5,9.7,27.9c-4.8,36.5-45.5,79.8-47.2,81.6l-2,2.1
		l-4.3-4l2-2.1c0.4-0.4,41.1-43.7,45.7-78.4c1.1-8.5-1.8-16.9-8-22.9c-6.3-6.1-15-8.9-23.7-7.4c-21.7,3.5-63.5,17.5-99.9,71.9
		c-0.8,1.3-20.1,32.9,21.2,84.7c42.8,53.7,68.7,82.6,69,82.9l2,2.2L385,431.9z"/>
	<path id="XMLID_16_" class="st0" d="M438,431.9l-2.3-1.8c-85.7-64.8-121.4-115.4-136.3-146.5c-8.7-18.3-9.3-39.4-1.5-58.1
		c7.7-18.3,22.1-32,40.7-38.4c25.3-8.7,45.5,0.5,46.4,0.9l0.5,0.2l0.4,0.4c35.8,38.5-4.5,93.3-4.9,93.8l-1.8,2.3l-4.7-3.5l1.8-2.4
		c0.4-0.5,37.5-51,5.8-85.8c-3.1-1.3-20.6-7.7-41.5-0.5c-17,5.9-30.2,18.3-37.2,35.1c-7.2,17.1-6.7,36.5,1.4,53.3
		c14.6,30.5,49.8,80.3,134.5,144.3l2.3,1.8L438,431.9z"/>
	<path id="XMLID_24_" class="st0" d="M503.8,431.6l-2.7-1c-87.2-33-181.1-148.9-182.1-150.1l-0.2-0.2
		c-19.6-29.8-27.6-53.5-23.8-70.5c1.9-8.5,6.7-15.2,14.2-19.8c7.9-4.8,17.7-5.4,26.4-1.5c51,22.7,40.1,77.1,40,77.6l-0.6,2.9
		l-5.8-1.2l0.6-2.9c0.4-2.1,10-50.3-36.6-71c-6.9-3.1-14.7-2.6-21,1.2c-6.1,3.7-9.9,9.1-11.5,16c-3.4,15.4,4.3,37.6,22.9,65.9
		C327,281,418.5,393.1,503.1,425l2.8,1L503.8,431.6z"/>
</g>
</svg>
